<?xml version="1.0" standalone="no"?>
<!DOCTYPE svg PUBLIC "-//W3C//DTD SVG 20010904//EN"
 "http://www.w3.org/TR/2001/REC-SVG-20010904/DTD/svg10.dtd">
<svg version="1.0" xmlns="http://www.w3.org/2000/svg"
 width="512.000000pt" height="512.000000pt" viewBox="0 0 512.000000 512.000000"
 preserveAspectRatio="xMidYMid meet">
<metadata>
Created by potrace 1.14, written by Peter Selinger 2001-2017
</metadata>
<g transform="translate(0.000000,512.000000) scale(0.100000,-0.100000)"
fill="#000000" stroke="none">
<path d="M1316 2884 c-22 -21 -21 -97 1 -115 25 -22 102 -18 119 5 20 28 18
89 -4 109 -24 22 -95 22 -116 1z"/>
<path d="M3867 2893 c-4 -3 -7 -154 -7 -335 l0 -328 70 0 70 0 0 68 c1 57 4
71 25 95 14 16 29 25 35 22 5 -3 30 -46 56 -95 l46 -90 80 0 c43 0 77 3 75 8
-2 4 -41 69 -87 144 l-83 138 77 90 77 90 -74 0 -75 0 -59 -73 c-32 -40 -66
-84 -75 -97 -16 -24 -17 -16 -17 173 l-1 197 -63 0 c-35 0 -67 -3 -70 -7z"/>
<path d="M790 2545 l0 -315 65 0 64 0 3 128 3 127 118 3 117 3 0 59 0 60 -120
0 -121 0 3 63 3 62 138 3 137 3 0 59 0 60 -205 0 -205 0 0 -315z"/>
<path d="M2010 2800 l0 -60 85 0 85 0 0 -255 0 -255 70 0 70 0 0 255 0 255 85
0 85 0 0 60 0 60 -240 0 -240 0 0 -60z"/>
<path d="M1759 2693 c-14 -9 -33 -28 -42 -42 l-16 -26 -1 38 0 37 -70 0 -70 0
0 -235 0 -235 70 0 70 0 0 161 c0 88 4 169 10 179 13 25 65 41 95 30 40 -15
45 -40 45 -209 l0 -161 65 0 65 0 0 182 c0 164 -2 186 -21 225 -12 24 -34 50
-50 58 -37 20 -117 19 -150 -2z"/>
<path d="M2960 2694 c-40 -17 -80 -52 -80 -70 0 -6 16 -24 35 -38 l35 -27 31
23 c21 16 44 23 76 23 52 0 73 -20 73 -71 l0 -32 -88 -4 c-136 -6 -182 -44
-182 -149 0 -42 5 -55 33 -86 29 -31 41 -37 88 -41 68 -5 122 16 147 57 l18
30 11 -29 c13 -35 46 -50 109 -50 l44 0 0 50 c0 42 -3 50 -19 50 -17 0 -19 11
-23 133 -4 156 -17 188 -88 225 -53 27 -165 30 -220 6z m170 -308 c0 -48 -12
-63 -58 -72 -47 -10 -84 18 -80 59 4 38 34 57 96 57 l42 0 0 -44z"/>
<path d="M3482 2689 c-24 -12 -54 -38 -67 -58 -68 -104 -55 -282 27 -358 86
-80 254 -66 315 26 13 19 23 38 23 43 0 8 -82 48 -100 48 -5 0 -12 -9 -15 -21
-10 -30 -66 -51 -103 -38 -40 14 -52 46 -52 140 0 91 15 124 61 134 40 9 67
-2 87 -34 l17 -28 52 24 c52 24 53 24 39 51 -45 87 -183 121 -284 71z"/>
<path d="M1310 2465 l0 -235 65 0 65 0 0 235 0 235 -65 0 -65 0 0 -235z"/>
<path d="M2540 2465 l0 -235 65 0 65 0 0 153 c0 180 2 185 94 194 l56 6 0 58
0 59 -32 0 c-45 -1 -78 -21 -99 -61 l-18 -34 -1 48 0 47 -65 0 -65 0 0 -235z"/>
</g>
</svg>
